<?xml version="1.0" encoding="utf-8"?>
<svg xmlns="http://www.w3.org/2000/svg">
	<symbol id="thermometre" viewBox="0 0 196.119 196.119">
		<path d="M114.105,110.441V53.487v-3.548V16.05C114.105,7.2,106.907,0,98.058,0c-8.848,0-16.046,7.199-16.046,16.05v33.889v3.548
			v56.954c-17.168,6.56-28.526,22.866-28.526,41.36c0,24.436,19.995,44.318,44.573,44.318s44.573-19.882,44.573-44.318
			C142.631,133.307,131.271,117.001,114.105,110.441z M89.144,28.526h7.132c1.969,0,3.566-1.597,3.566-3.566
			s-1.597-3.566-3.566-3.566h-7.132V16.05c0-4.917,4-8.918,8.915-8.918s8.915,4.001,8.915,8.918v30.306h-17.83V28.526z
			 M98.058,188.988c-20.645,0-37.441-16.682-37.441-37.187c0-16.252,10.464-30.491,26.038-35.432
			c1.482-0.47,2.488-1.844,2.488-3.399v-9.562h7.132c1.969,0,3.566-1.597,3.566-3.566s-1.597-3.566-3.566-3.566h-7.132V78.448h7.132
			c1.969,0,3.566-1.597,3.566-3.566c0-1.969-1.597-3.566-3.566-3.566h-7.132V53.505h17.829v59.466c0,1.555,1.006,2.929,2.488,3.399
			c15.574,4.941,26.038,19.18,26.038,35.432C135.5,172.306,118.702,188.988,98.058,188.988z"/>
	</symbol>
	<symbol id="wind" viewBox="0 0 192.555 192.5559">
		<path d="M126.587,185.423L126.587,185.423V64.185V42.79V8.124c2.121,1.237,3.566,3.512,3.566,6.14v3.566h7.132v-3.566
			C137.285,6.397,130.886,0,123.021,0s-14.263,6.397-14.263,14.263v3.566h7.132v-3.566c0-2.627,1.445-4.902,3.566-6.14v29.259
			l-19.99-8.567c-0.118-0.051-0.242-0.068-0.363-0.105c-0.09-0.028-0.171-0.055-0.262-0.076c-0.437-0.098-0.88-0.113-1.319-0.045
			c-0.033,0.005-0.065-0.01-0.098-0.004l-39.224,7.132l-39.224,7.132c-1.696,0.306-2.929,1.783-2.929,3.507v14.263
			c0,1.724,1.233,3.2,2.929,3.507l39.224,7.132l39.224,7.132c0.213,0.042,0.425,0.059,0.637,0.059c0.453,0,0.893-0.103,1.311-0.27
			c0.03-0.012,0.064-0.006,0.094-0.019l19.99-8.567v115.83H41.008v7.132h135.501v-7.132H126.587z M55.271,63.478l-32.092-5.837
			v-8.308l32.092-5.836V63.478z M94.495,70.609l-32.092-5.836V42.201l32.092-5.836V70.609z M119.456,61.834l-17.829,7.64V37.5
			l17.829,7.64V61.834z"/>
		</symbol>
</svg>
